<?xml version="1.0" standalone="no"?>
<!DOCTYPE svg PUBLIC "-//W3C//DTD SVG 20010904//EN"
 "http://www.w3.org/TR/2001/REC-SVG-20010904/DTD/svg10.dtd">
<svg version="1.0" xmlns="http://www.w3.org/2000/svg"
 width="105.000000pt" height="105.000000pt" viewBox="0 0 105.000000 105.000000"
 preserveAspectRatio="xMidYMid meet">

<g transform="translate(0.000000,105.000000) scale(0.100000,-0.100000)"
fill="#000000" stroke="none">
<path d="M454 746 c-30 -30 -34 -40 -34 -86 0 -46 4 -56 34 -86 30 -30 40 -34
86 -34 46 0 56 4 86 34 30 30 34 40 34 86 0 46 -4 56 -34 86 -30 30 -40 34
-86 34 -46 0 -56 -4 -86 -34z m138 -33 c23 -20 24 -80 1 -105 -20 -23 -80 -24
-105 -1 -23 20 -24 80 -1 105 20 23 80 24 105 1z"/>
<path d="M270 655 c0 -58 64 -155 116 -175 18 -7 22 -19 27 -99 8 -133 18
-144 133 -143 72 1 102 13 108 45 15 73 15 94 1 112 -15 20 -15 20 -30 1 -8
-11 -15 -39 -15 -63 l0 -43 -70 0 -70 0 0 85 0 85 95 0 c119 0 130 -8 140
-107 9 -92 13 -103 37 -103 20 0 21 4 15 79 -7 93 -26 144 -59 163 -14 8 -72
15 -153 18 -109 4 -134 8 -157 25 -29 22 -62 75 -72 118 -9 37 -46 38 -46 2z"/>
</g>
</svg>
