<svg width="50" height="50" viewBox="0 0 50 50" fill="none" xmlns="http://www.w3.org/2000/svg">
<path stroke-width="1.5" fill-rule="evenodd" clip-rule="evenodd" d="M3.98476 11.7726C4.38661 11.6721 4.79381 11.9164 4.89427 12.3183L5.6901 15.5016C5.6901 15.5016 5.6901 15.5016 5.6901 15.5016C6.35632 18.166 7.75129 20.5923 9.71872 22.5086C11.6667 24.406 14.0998 25.7292 16.75 26.3335H33.3333C37.2762 26.3335 40.5963 29.2849 41.0574 33.2042L42.4115 44.7041C42.46 45.1155 42.1657 45.4883 41.7544 45.5367C41.343 45.5851 40.9702 45.2909 40.9218 44.8796L39.5676 33.3796C39.1954 30.2155 36.5154 27.8335 33.3333 27.8335H17.4167V37.5002C17.4167 39.486 17.4183 40.8993 17.5626 41.9721C17.704 43.0231 17.9699 43.6344 18.4178 44.0823C18.8658 44.5303 19.4771 44.7962 20.5281 44.9376C21.6009 45.0819 23.0142 45.0835 25 45.0835C26.9858 45.0835 28.3991 45.0819 29.4719 44.9376C30.5229 44.7962 31.1342 44.5303 31.5822 44.0823C32.0301 43.6344 32.296 43.0231 32.4374 41.9721C32.5817 40.8993 32.5833 39.486 32.5833 37.5002V35.4168C32.5833 35.0026 32.9191 34.6668 33.3333 34.6668C33.7475 34.6668 34.0833 35.0026 34.0833 35.4168V37.5568C34.0833 39.4734 34.0834 40.9877 33.924 42.172C33.7602 43.3898 33.4157 44.3701 32.6428 45.143C31.8699 45.9159 30.8896 46.2604 29.6719 46.4242C28.4875 46.5835 26.9732 46.5835 25.0567 46.5835H24.9433C23.0268 46.5835 21.5125 46.5835 20.3281 46.4242C19.1104 46.2604 18.1301 45.9159 17.3572 45.143C16.5843 44.3701 16.2398 43.3898 16.076 42.172C15.9166 40.9877 15.9166 39.4734 15.9167 37.5569V27.6737C13.1918 26.9611 10.6946 25.5531 8.67212 23.5831C6.50514 21.4725 4.96868 18.8001 4.2349 15.8654L3.43906 12.6821C3.3386 12.2802 3.58292 11.873 3.98476 11.7726Z" fill="white"/>
<path stroke-width="1.5" d="M5.6901 15.5016L4.89427 12.3183C4.79381 11.9164 4.38661 11.6721 3.98476 11.7726C3.58292 11.873 3.3386 12.2802 3.43906 12.6821L4.2349 15.8654C4.96868 18.8001 6.50514 21.4725 8.67212 23.5831C10.6946 25.5531 13.1918 26.9611 15.9167 27.6737V37.5569C15.9166 39.4734 15.9166 40.9877 16.076 42.172C16.2398 43.3898 16.5843 44.3701 17.3572 45.143C18.1301 45.9159 19.1104 46.2604 20.3281 46.4242C21.5125 46.5835 23.0268 46.5835 24.9433 46.5835H25.0567C26.9732 46.5835 28.4875 46.5835 29.6719 46.4242C30.8896 46.2604 31.8699 45.9159 32.6428 45.143C33.4157 44.3701 33.7602 43.3898 33.924 42.172C34.0834 40.9877 34.0833 39.4734 34.0833 37.5568V35.4168C34.0833 35.0026 33.7475 34.6668 33.3333 34.6668C32.9191 34.6668 32.5833 35.0026 32.5833 35.4168V37.5002C32.5833 39.486 32.5817 40.8993 32.4374 41.9721C32.296 43.0231 32.0301 43.6344 31.5822 44.0823C31.1342 44.5303 30.5229 44.7962 29.4719 44.9376C28.3991 45.0819 26.9858 45.0835 25 45.0835C23.0142 45.0835 21.6009 45.0819 20.5281 44.9376C19.4771 44.7962 18.8658 44.5303 18.4178 44.0823C17.9699 43.6344 17.704 43.0231 17.5626 41.9721C17.4183 40.8993 17.4167 39.486 17.4167 37.5002V27.8335H33.3333C36.5154 27.8335 39.1954 30.2155 39.5676 33.3796L40.9218 44.8796C40.9702 45.2909 41.343 45.5851 41.7544 45.5367C42.1657 45.4883 42.46 45.1155 42.4115 44.7041L41.0574 33.2042C40.5963 29.2849 37.2762 26.3335 33.3333 26.3335H16.75C14.0998 25.7292 11.6667 24.406 9.71872 22.5086C7.75129 20.5923 6.35632 18.166 5.6901 15.5016ZM5.6901 15.5016C5.6901 15.5016 5.6901 15.5016 5.6901 15.5016Z" stroke="white" stroke-width="1.5" stroke-linecap="round"/>
<path stroke-width="1.5" fill-rule="evenodd" clip-rule="evenodd" d="M25 4.91675C20.8118 4.91675 17.4167 8.31192 17.4167 12.5001C17.4167 16.6882 20.8118 20.0834 25 20.0834C29.1882 20.0834 32.5833 16.6882 32.5833 12.5001C32.5833 8.31192 29.1882 4.91675 25 4.91675ZM15.9167 12.5001C15.9167 7.48349 19.9834 3.41675 25 3.41675C30.0166 3.41675 34.0833 7.48349 34.0833 12.5001C34.0833 17.5167 30.0166 21.5834 25 21.5834C19.9834 21.5834 15.9167 17.5167 15.9167 12.5001Z" fill="white" stroke="white" stroke-width="1.5"/>
</svg>
